<svg height="512" viewBox="0 0 64 64" width="512" xmlns="http://www.w3.org/2000/svg"><g id="monitor"><path d="m61 5v40h-58v-40a2.006 2.006 0 0 1 2-2h54a2.006 2.006 0 0 1 2 2z" fill="#c6c5ca"/><path d="m61 5v40h-2v-40a2.006 2.006 0 0 0 -2-2h2a2.006 2.006 0 0 1 2 2z" fill="#acabb1"/><path d="m57 36-1.98.49 1.05 1.75-2.83 2.83-1.75-1.05-.49 1.98h-4l-.49-1.98-1.75 1.05-2.83-2.83 1.05-1.75-1.98-.49v-4l1.98-.49-1.05-1.75 2.83-2.83 1.75 1.05.49-1.98h4l.49 1.98 1.75-1.05 2.83 2.83-1.05 1.75 1.98.49z" fill="#c0ab91"/><path d="m57 16-1.98.49 1.05 1.75-2.83 2.83-1.75-1.05-.49 1.98h-4l-.49-1.98-1.75 1.05-2.83-2.83 1.05-1.75-1.98-.49v-4l1.98-.49-1.05-1.75 2.83-2.83 1.75 1.05.49-1.98h4l.49 1.98 1.75-1.05 2.83 2.83-1.05 1.75 1.98.49z" fill="#c0ab91"/><circle cx="49" cy="14" fill="#ffde55" r="3"/><circle cx="49" cy="34" fill="#ffde55" r="3"/><path d="m44 61h-24l3-4h18z" fill="#57a4ff"/><path d="m39 57h-14l1-6h12z" fill="#c6c5ca"/><path d="m39 57h-2l-1-6h2z" fill="#acabb1"/><path d="m61 45v4a2.006 2.006 0 0 1 -2 2h-54a2.006 2.006 0 0 1 -2-2v-4z" fill="#57a4ff"/><path d="m44 61h-2l-3-4h2z" fill="#2488ff"/><path d="m61 45v4a2.006 2.006 0 0 1 -2 2h-2a2.006 2.006 0 0 0 2-2v-4z" fill="#2488ff"/><path d="m31 36v5h-24v-10h24z" fill="#00b6bd"/><path d="m21 21h10v6h-10z" fill="#ffdaaa"/><path d="m31 12v5h-24v-10h24z" fill="#00b6bd"/><path d="m7 21h10v6h-10z" fill="#ffdaaa"/><path d="m31 47h2v2h-2z"/><path d="m59 2h-54a3 3 0 0 0 -3 3v44a3 3 0 0 0 3 3h19.82l-.667 4h-1.153a1 1 0 0 0 -.8.4l-3 4a1 1 0 0 0 .8 1.6h24a1 1 0 0 0 .8-1.6l-3-4a1 1 0 0 0 -.8-.4h-1.153l-.667-4h19.82a3 3 0 0 0 3-3v-44a3 3 0 0 0 -3-3zm-54 2h54a1 1 0 0 1 1 1v39h-56v-39a1 1 0 0 1 1-1zm37 56h-20l1.5-2h17zm-4.18-4h-11.64l.667-4h10.306zm21.18-6h-54a1 1 0 0 1 -1-1v-3h56v3a1 1 0 0 1 -1 1z"/><path d="m49 18a4 4 0 1 0 -4-4 4 4 0 0 0 4 4zm0-6a2 2 0 1 1 -2 2 2 2 0 0 1 2-2z"/><path d="m40.758 16.97.668.167-.355.591a1 1 0 0 0 .151 1.221l2.829 2.829a1 1 0 0 0 1.221.151l.591-.355.167.668a1 1 0 0 0 .97.758h4a1 1 0 0 0 .97-.758l.167-.668.591.355a1 1 0 0 0 1.221-.151l2.829-2.829a1 1 0 0 0 .151-1.221l-.355-.591.668-.167a1 1 0 0 0 .758-.97v-4a1 1 0 0 0 -.758-.97l-.668-.167.355-.591a1 1 0 0 0 -.151-1.221l-2.829-2.829a1 1 0 0 0 -1.221-.151l-.591.355-.167-.668a1 1 0 0 0 -.97-.758h-4a1 1 0 0 0 -.97.758l-.167.668-.591-.355a1 1 0 0 0 -1.221.151l-2.829 2.829a1 1 0 0 0 -.151 1.221l.355.591-.668.167a1 1 0 0 0 -.758.97v4a1 1 0 0 0 .758.97zm1.242-4.189 1.22-.3a1 1 0 0 0 .615-1.485l-.648-1.078 1.726-1.725 1.078.647a1 1 0 0 0 1.485-.615l.3-1.22h2.438l.3 1.22a1 1 0 0 0 1.485.615l1.078-.647 1.725 1.725-.647 1.078a1 1 0 0 0 .615 1.485l1.22.3v2.438l-1.22.3a1 1 0 0 0 -.615 1.485l.647 1.078-1.725 1.726-1.078-.648a1 1 0 0 0 -1.485.615l-.3 1.22h-2.433l-.3-1.22a1 1 0 0 0 -1.485-.615l-1.078.648-1.726-1.726.648-1.078a1 1 0 0 0 -.615-1.485l-1.22-.3z"/><path d="m49 30a4 4 0 1 0 4 4 4 4 0 0 0 -4-4zm0 6a2 2 0 1 1 2-2 2 2 0 0 1 -2 2z"/><path d="m57.242 31.03-.668-.167.355-.591a1 1 0 0 0 -.151-1.221l-2.829-2.829a1 1 0 0 0 -1.221-.151l-.591.355-.167-.668a1 1 0 0 0 -.97-.758h-4a1 1 0 0 0 -.97.758l-.167.668-.591-.355a1 1 0 0 0 -1.221.151l-2.829 2.829a1 1 0 0 0 -.151 1.221l.355.591-.668.167a1 1 0 0 0 -.758.97v4a1 1 0 0 0 .758.97l.668.167-.355.591a1 1 0 0 0 .151 1.221l2.829 2.829a1 1 0 0 0 1.221.151l.591-.355.167.668a1 1 0 0 0 .97.758h4a1 1 0 0 0 .97-.758l.167-.668.591.355a1 1 0 0 0 1.221-.151l2.829-2.829a1 1 0 0 0 .151-1.221l-.355-.591.668-.167a1 1 0 0 0 .758-.97v-4a1 1 0 0 0 -.758-.97zm-1.242 4.189-1.22.3a1 1 0 0 0 -.615 1.485l.647 1.078-1.725 1.726-1.078-.648a1 1 0 0 0 -1.485.615l-.3 1.22h-2.443l-.3-1.22a1 1 0 0 0 -1.485-.615l-1.078.648-1.726-1.726.648-1.078a1 1 0 0 0 -.615-1.485l-1.22-.3v-2.438l1.22-.3a1 1 0 0 0 .615-1.485l-.648-1.078 1.726-1.725 1.078.647a1 1 0 0 0 1.485-.615l.3-1.22h2.438l.3 1.22a1 1 0 0 0 1.485.615l1.078-.647 1.725 1.725-.647 1.078a1 1 0 0 0 .615 1.485l1.22.3z"/><path d="m7 18h24a1 1 0 0 0 1-1v-4h2v8a1 1 0 0 0 1 1h5v-2h-4v-8a1 1 0 0 0 -1-1h-3v-4a1 1 0 0 0 -1-1h-24a1 1 0 0 0 -1 1v10a1 1 0 0 0 1 1zm1-10h22v8h-22z"/><path d="m7 28h10a1 1 0 0 0 1-1v-6a1 1 0 0 0 -1-1h-10a1 1 0 0 0 -1 1v6a1 1 0 0 0 1 1zm1-6h8v4h-8z"/><path d="m31 20h-10a1 1 0 0 0 -1 1v6a1 1 0 0 0 1 1h10a1 1 0 0 0 1-1v-6a1 1 0 0 0 -1-1zm-1 6h-8v-4h8z"/><path d="m7 42h24a1 1 0 0 0 1-1v-4h3a1 1 0 0 0 1-1v-8h4v-2h-5a1 1 0 0 0 -1 1v8h-2v-4a1 1 0 0 0 -1-1h-24a1 1 0 0 0 -1 1v10a1 1 0 0 0 1 1zm1-10h22v8h-22z"/></g></svg>